<?xml version="1.0" encoding="UTF-8" standalone="no"?>
<svg
   height="16px"
   viewBox="0 0 16 16"
   width="16px"
   version="1.1"
   id="svg4"
   sodipodi:docname="online.athn.browser.gnome.svg"
   inkscape:version="1.2.2 (b0a8486541, 2022-12-01)"
   xmlns:inkscape="http://www.inkscape.org/namespaces/inkscape"
   xmlns:sodipodi="http://sodipodi.sourceforge.net/DTD/sodipodi-0.dtd"
   xmlns="http://www.w3.org/2000/svg"
   xmlns:svg="http://www.w3.org/2000/svg">
  <defs
     id="defs8" />
  <sodipodi:namedview
     id="namedview6"
     pagecolor="#ffffff"
     bordercolor="#000000"
     borderopacity="0.25"
     inkscape:showpageshadow="2"
     inkscape:pageopacity="0"
     inkscape:pagecheckerboard="true"
     inkscape:deskcolor="#d1d1d1"
     showgrid="false"
     inkscape:zoom="46.4375"
     inkscape:cx="12.823688"
     inkscape:cy="8.0215343"
     inkscape:window-width="2530"
     inkscape:window-height="1051"
     inkscape:window-x="0"
     inkscape:window-y="0"
     inkscape:window-maximized="1"
     inkscape:current-layer="svg4" />
  <path
     d="m 7.9999998,1.430283 c -3.6167659,0 -6.5697171,2.9529512 -6.5697171,6.5697171 0,3.6167659 2.9529512,6.5697169 6.5697171,6.5697169 3.6167662,0 6.5697172,-2.952951 6.5697172,-6.5697169 0,-3.6167659 -2.952951,-6.5697171 -6.5697172,-6.5697171 z M 9.6150554,3.4559458 C 10.449957,3.7502148 11.175363,4.266895 11.72284,4.9341321 H 10.648418 C 10.381522,4.4003426 10.035928,3.9007699 9.6150554,3.4559458 Z M 6.3575705,3.4662112 C 5.9435418,3.9110353 5.5979466,4.4037641 5.3310522,4.9341321 H 4.2771601 C 4.8177935,4.2737389 5.5363559,3.7639008 6.3575705,3.4662112 Z m 1.2044482,0.085543 v 1.382378 H 6.3370398 C 6.6552611,4.4140295 7.0624469,3.945253 7.5620187,3.5517542 Z M 8.437981,3.5654412 C 8.9272883,3.9555176 9.3310517,4.4208725 9.6458507,4.9341321 H 8.437981 Z M 3.7057315,5.8100944 H 4.9683488 C 4.7801543,6.3746792 4.6638152,6.9666379 4.6261768,7.562019 H 3.2027382 C 3.2574858,6.9358426 3.4354148,6.3438839 3.7057315,5.8100944 Z m 2.1967496,0 H 7.5620187 V 7.562019 H 5.5089822 C 5.5500429,6.9632164 5.680068,6.3712577 5.9024811,5.8100944 Z m 2.5354999,0 h 1.642429 c 0.222412,0.5611633 0.352438,1.153122 0.393499,1.7519246 H 8.437981 Z m 2.576561,0 h 1.279726 c 0.270317,0.5337895 0.448246,1.1257482 0.502994,1.7519246 H 11.356715 C 11.319075,6.9666379 11.202737,6.3746792 11.014542,5.8100944 Z M 3.2027382,8.4379812 H 4.6261768 C 4.6672368,9.0333623 4.7801543,9.625321 4.971771,10.189906 H 3.7057315 C 3.4354148,9.6561163 3.2574858,9.0641576 3.2027382,8.4379812 Z m 2.306244,0 H 7.5620187 V 10.189906 H 5.9059026 C 5.6834905,9.632164 5.5534644,9.0367838 5.5089822,8.4379812 Z m 2.9289988,0 h 2.035928 C 10.429427,9.0367838 10.299401,9.632164 10.076988,10.189906 H 8.437981 Z m 2.918734,0 h 1.440547 c -0.05475,0.6261764 -0.232677,1.2181351 -0.502994,1.7519248 H 11.01112 C 11.202737,9.625321 11.315654,9.0333623 11.356715,8.4379812 Z M 4.2771601,11.065868 h 1.0607361 c 0.2737382,0.533789 0.622754,1.033362 1.0470482,1.478186 C 5.5500429,12.249785 4.8246365,11.733105 4.2771601,11.065868 Z m 2.0701451,0 h 1.2147135 v 1.358426 C 7.0692899,12.037639 6.6621041,11.575705 6.3473052,11.065868 Z m 2.0906758,0 H 9.6355862 C 9.3242086,11.572284 8.9238668,12.027373 8.437981,12.410607 Z m 2.207014,0 h 1.077845 c -0.55432,0.67408 -1.289992,1.194183 -2.1351585,1.485029 0.4311385,-0.444824 0.7835755,-0.947818 1.0573135,-1.485029 z m 0,0"
     id="path2"
     style="fill:#21b06d;fill-opacity:1;stroke-width:0.875962" />
  <rect
     style="fill:#ffffff;fill-opacity:1"
     id="rect898"
     width="14"
     height="6"
     x="1"
     y="5"
     rx="2.5" />
  <g
     aria-label="ATHN"
     id="text1006"
     style="font-size:6.66667px;fill:#ffffff"
     transform="matrix(0.96692317,0,0,0.96692317,1.0666066,0.72363275)">
    <path
       d="M 0.92057043,6.6919459 V 9.608614 H 1.3372373 q 0,0 0,-1.6666675 h 1.6666675 q 0,0 0,1.6666675 H 3.4205716 V 6.6919459 H 3.0039048 q 0,0 0,0.8333337 H 1.3372373 q 0,0 0,-0.8333337 z m 0.41666687,0 h 0.4166669 q 0,0 0,-0.8333337 H 1.3372373 q 0,0 0,0.8333337 z m 1.6666675,0 q 0,0 0,-0.8333337 H 2.5872379 q 0,0 0,0.8333337 z M 1.7539042,5.8586122 H 2.5872379 V 5.4419453 H 1.7539042 Z"
       style="font-family:Unifont;-inkscape-font-specification:Unifont;fill:#000000"
       id="path1160" />
    <path
       d="M 7.1705734,5.8586122 V 5.4419453 H 4.2539054 V 5.8586122 H 5.503906 V 9.608614 H 5.9205728 V 5.8586122 Z"
       style="font-family:Unifont;-inkscape-font-specification:Unifont;fill:#000000"
       id="path1162" />
    <path
       d="m 7.5872403,5.4419453 q 0,0 0,4.1666687 H 8.0039071 V 7.5252796 H 9.6705746 V 9.608614 h 0.4166664 q 0,0 0,-4.1666687 H 9.6705746 q 0,0 0,1.6666675 H 8.0039071 q 0,0 0,-1.6666675 z"
       style="font-family:Unifont;-inkscape-font-specification:Unifont;fill:#000000"
       id="path1164" />
    <path
       d="m 10.920575,5.4419453 q 0,0 0,4.1666687 h 0.416667 V 6.6919459 h 0.416667 q 0,0 0,0.8333337 h 0.416667 q 0,0 0,0.8333338 h 0.416667 q 0,0 0,0.8333337 H 13.00391 V 9.608614 h 0.416666 q 0,0 0,-4.1666687 H 13.00391 v 2.9166681 h -0.416667 q 0,0 0,-0.8333338 h -0.416667 q 0,0 0,-0.8333337 h -0.416667 q 0,0 0,-0.8333337 H 11.337242 V 5.4419453 Z"
       style="font-family:Unifont;-inkscape-font-specification:Unifont;fill:#000000"
       id="path1166" />
  </g>
</svg>
